<?xml version="1.0" encoding="UTF-8"?>
<svg width="14px" height="7px" viewBox="0 0 14 7" version="1.1" xmlns="http://www.w3.org/2000/svg" xmlns:xlink="http://www.w3.org/1999/xlink">
    <!-- Generator: Sketch 47.1 (45422) - http://www.bohemiancoding.com/sketch -->
    <title>隐藏</title>
    <desc>Created with Sketch.</desc>
    <defs></defs>
    <g id="Page-1" stroke="none" stroke-width="1" fill="none" fill-rule="evenodd">
        <g id="搜索" transform="translate(-492.000000, -2504.000000)" fill-rule="nonzero" fill="#666666">
            <g id="拍照／扫描搜索" transform="translate(150.000000, 2177.000000)">
                <g id="在页面上" transform="translate(0.000000, 72.000000)">
                    <g id="part2" transform="translate(18.000000, 251.000000)">
                        <path d="M337.915977,4.86736096 C338.066133,4.62530633 338.016081,4.30256681 337.815874,4.1143021 C337.59064,3.92603738 337.290329,3.9798273 337.115148,4.22188193 C337.090122,4.24877689 334.310679,7.77369752 331.005693,7.77369752 C327.80081,7.77369752 324.896238,4.22188193 324.871212,4.19498697 C324.69603,3.9798273 324.370693,3.95293234 324.170486,4.14119705 C323.970278,4.32946177 323.945252,4.67909624 324.120434,4.89425592 C324.170486,4.9749408 324.771108,5.70110471 325.723657,6.50795349 L324.447335,7.93338634 C324.247128,8.14854602 324.272154,8.49818049 324.472361,8.68644521 C324.522413,8.79402505 324.647543,8.84781497 324.772672,8.84781497 C324.897802,8.84781497 325.022931,8.79402505 325.123035,8.68644521 L326.499461,7.15343252 C327.150135,7.63754179 327.925939,8.0947561 328.778385,8.41749561 L328.25284,10.3287187 C328.177763,10.6245632 328.327918,10.9204078 328.603203,11.0010927 L328.753359,11.0010927 C328.978592,11.0010927 329.1788,10.8397229 329.228852,10.5976683 L329.754396,8.68644521 C330.154811,8.76713009 330.580252,8.82092001 331.005693,8.82092001 C331.431133,8.82092001 331.856574,8.76713009 332.256989,8.68644521 L332.782534,10.5707733 C332.832585,10.8128279 333.057819,10.9741977 333.258026,10.9741977 C333.308078,10.9741977 333.35813,10.9741977 333.383156,10.9473027 C333.658441,10.8666179 333.808597,10.5707733 333.733519,10.2749288 L333.207974,8.39060066 C334.058856,8.06786114 334.836224,7.61064683 335.486898,7.12653756 L336.838298,8.63265529 C336.938402,8.74023513 337.063532,8.79402505 337.188661,8.79402505 C337.313791,8.79402505 337.43892,8.74023513 337.539024,8.63265529 C337.739232,8.41749561 337.739232,8.0947561 337.56405,7.87959643 L336.289292,6.45416357 C337.315355,5.64731479 337.915977,4.86736096 337.915977,4.86736096 Z" id="隐藏"></path>
                    </g>
                </g>
            </g>
        </g>
    </g>
</svg>