<?xml version="1.0" encoding="UTF-8"?>
<svg width="14px" height="14px" viewBox="0 0 14 14" version="1.1" xmlns="http://www.w3.org/2000/svg" xmlns:xlink="http://www.w3.org/1999/xlink">
    <!-- Generator: Sketch 47.1 (45422) - http://www.bohemiancoding.com/sketch -->
    <title>Combined Shape</title>
    <desc>Created with Sketch.</desc>
    <defs></defs>
    <g id="Page-1" stroke="none" stroke-width="1" fill="none" fill-rule="evenodd">
        <g id="搜索" transform="translate(-204.000000, -1326.000000)" fill-rule="nonzero" fill="#999999">
            <g id="拍照／扫描搜索" transform="translate(150.000000, 1238.000000)">
                <g transform="translate(0.000000, 72.000000)" id="搜索框">
                    <g transform="translate(8.000000, 8.000000)">
                        <g id="search" transform="translate(46.000000, 8.000000)">
                            <path d="M11.5920151,10.4856973 L13.7901181,12.7434965 C14.0699606,13.030939 14.0699606,13.4969755 13.7901181,13.7844181 C13.5102755,14.0718606 13.056561,14.0718606 12.7767184,13.7844181 L10.6200136,11.5691413 C9.49404973,12.5730723 8.02416208,13.1807092 6.41610563,13.1807092 C2.87258834,13.1807092 0,10.2301069 0,6.59035458 C0,2.95060225 2.87258834,0 6.41610563,0 C9.95962293,0 12.8322113,2.95060225 12.8322113,6.59035458 C12.8322113,8.04766411 12.3717073,9.39449616 11.5920151,10.4856973 Z M6.41610563,12.1668085 C9.41446642,12.1668085 11.8451181,9.67014501 11.8451181,6.59035458 C11.8451181,3.51056415 9.41446642,1.0139007 6.41610563,1.0139007 C3.41774485,1.0139007 0.987093174,3.51056415 0.987093174,6.59035458 C0.987093174,9.67014501 3.41774485,12.1668085 6.41610563,12.1668085 Z" id="Combined-Shape"></path>
                        </g>
                    </g>
                </g>
            </g>
        </g>
    </g>
</svg>