<?xml version="1.0" encoding="UTF-8"?>
<svg width="53px" height="53px" viewBox="0 0 53 53" version="1.1" xmlns="http://www.w3.org/2000/svg" xmlns:xlink="http://www.w3.org/1999/xlink">
    <!-- Generator: Sketch 47.1 (45422) - http://www.bohemiancoding.com/sketch -->
    <title>Group 8</title>
    <desc>Created with Sketch.</desc>
    <defs></defs>
    <g id="Page-1" stroke="none" stroke-width="1" fill="none" fill-rule="evenodd">
        <g id="弹窗控件" transform="translate(-1560.000000, -4625.000000)">
            <g id="Group-8" transform="translate(1560.000000, 4625.000000)">
                <path d="M26.5,52 C40.5832611,52 52,40.5832611 52,26.5 C52,12.4167389 40.5832611,1 26.5,1 C12.4167389,1 1,12.4167389 1,26.5 C1,40.5832611 12.4167389,52 26.5,52 Z" id="Oval" stroke="#FFFFFF" stroke-width="2"></path>
                <g id="添加icon" transform="translate(15.000000, 15.000000)" fill="#FFFFFF">
                    <path d="M3.97939823,11.5 C3.67837677,11.5 3.42708333,11.7471761 3.42708333,12.0520833 C3.42708333,12.3591163 3.67436314,12.6041667 3.97939823,12.6041667 L10.9479167,12.6041667 L10.9479167,19.5726851 C10.9479167,19.8737066 11.1950928,20.125 11.5,20.125 C11.807033,20.125 12.0520833,19.8777202 12.0520833,19.5726851 L12.0520833,12.6041667 L19.0206018,12.6041667 C19.3216232,12.6041667 19.5729167,12.3569905 19.5729167,12.0520833 C19.5729167,11.7450504 19.3256369,11.5 19.0206018,11.5 L12.0520833,11.5 L12.0520833,4.53148156 C12.0520833,4.2304601 11.8049072,3.97916667 11.5,3.97916667 C11.192967,3.97916667 10.9479167,4.22644647 10.9479167,4.53148156 L10.9479167,11.5 L3.97939823,11.5 Z" id="Combined-Shape" transform="translate(11.500000, 12.052083) rotate(-315.000000) translate(-11.500000, -12.052083) "></path>
                </g>
            </g>
        </g>
    </g>
</svg>