<?xml version="1.0" encoding="UTF-8"?>
<svg width="20px" height="20px" viewBox="0 0 20 20" version="1.1" xmlns="http://www.w3.org/2000/svg" xmlns:xlink="http://www.w3.org/1999/xlink">
    <!-- Generator: Sketch 47.1 (45422) - http://www.bohemiancoding.com/sketch -->
    <title>Shape</title>
    <desc>Created with Sketch.</desc>
    <defs></defs>
    <g id="Page-1" stroke="none" stroke-width="1" fill="none" fill-rule="evenodd">
        <g id="搜索" transform="translate(-685.000000, -1322.000000)" fill-rule="nonzero" fill="#666666">
            <g id="拍照／扫描搜索" transform="translate(150.000000, 1238.000000)">
                <g id="事例" transform="translate(525.000000, 72.000000)">
                    <g id="搜索框" transform="translate(8.000000, 8.000000)">
                        <g id="扫描-(1)" transform="translate(2.000000, 4.000000)">
                            <path d="M0.904228777,3.27241508 C0.906938604,1.97481613 1.96819513,0.908508156 3.26449405,0.905760829 L6,0.905760829 L6,-6.47051857e-16 L3.26449405,-6.47051857e-16 C1.46553519,0.0013736744 0.00273835373,1.4703088 7.35522754e-16,3.2724437 L7.35522754e-16,6 L0.904228777,6 L0.904228777,3.27241508 Z M19.0957826,3.27241508 C19.0931012,1.97481613 18.0318245,0.908508156 16.7355294,0.905760829 L14,0.905760829 L14,-6.47051857e-16 L16.7355294,-6.47051857e-16 C18.534494,0.0013736744 19.9973472,1.47030878 20,3.2724437 L20,6 L19.0957826,6 L19.0957826,3.27241508 Z M19.0986364,16.7264558 C19.0956696,18.0254509 18.0332718,19.0915534 16.7382089,19.0942149 L14,19.0942149 L14,20 L16.7382374,20 C18.5357442,19.998655 20,18.5297269 20,16.7264272 L20,14 L19.0986649,14 L19.0986364,16.7264558 L19.0986364,16.7264558 Z M3.26450957,19.0941863 C1.96820446,19.0914962 0.906942916,18.0253936 0.90426158,16.7264272 L0.90426158,14 L7.35522754e-16,14 L7.35522754e-16,16.7264272 C0.00268131423,18.5297269 1.46551363,19.998655 3.26448104,20 L6,20 L6,19.0942149 L3.26450957,19.0942149 L3.26450957,19.0941863 Z M1,9.5 L19,9.5 L19,10.5 L1,10.5 L1,9.5 Z" id="Shape"></path>
                        </g>
                    </g>
                </g>
            </g>
        </g>
    </g>
</svg>